<svg width="62" height="62" xmlns="http://www.w3.org/2000/svg" xmlns:xlink="http://www.w3.org/1999/xlink" xml:space="preserve" overflow="hidden"><defs><clipPath id="clip0"><rect x="613" y="333" width="62" height="62"/></clipPath><clipPath id="clip1"><rect x="613" y="337" width="62" height="54"/></clipPath></defs><g clip-path="url(#clip0)" transform="translate(-613 -333)"><g clip-path="url(#clip1)"><path d="M28.9378 15.2296C27.9721 18.1085 27.0641 20.8052 26.1622 23.5019 25.655 25.0203 25.7644 25.1874 27.3496 25.1904 32.5061 25.2005 37.6626 25.2056 42.8191 25.2056L44.2161 25.2056C44.3345 25.4576 44.4256 25.5548 44.4074 25.6186 43.1714 29.4693 42.643 33.6692 38.9684 36.296 37.1504 37.6568 34.941 38.393 32.6701 38.3945 29.3114 38.3945 25.9496 38.4127 22.5909 38.3702 21.5736 38.3702 21.0087 38.6465 20.6929 39.7034 20.0126 41.9901 19.1745 44.2282 18.4001 46.4937 17.0229 50.7999 12.9903 53.6979 8.46968 53.6302L1.567 53.6302C1.11755 53.6302 0.671137 53.5755 0.00303682 53.53 0.583069 51.635 1.08414 49.8858 1.6581 48.1548 4.52789 39.5303 7.42805 30.9118 10.2978 22.2842 11.6705 18.1571 15.2934 15.2782 19.63 15.093 22.3419 14.9776 25.0598 15.0474 27.7778 15.0505 28.1683 15.0817 28.556 15.1416 28.9378 15.2296Z" fill="#006ADC" transform="matrix(1 0 0 1.0001 613.176 337.204)"/><path d="M61.5047 0.0516259C59.801 4.0663 59.634 8.43324 56.169 11.3091 54.3803 12.7941 52.373 13.8175 50.0437 13.8479 43.9276 13.9268 37.8114 13.8934 31.6953 13.8965 31.4921 13.8454 31.2962 13.7689 31.1122 13.6687 31.7196 11.8102 32.3816 9.96987 32.8948 8.09008 34.316 2.8455 39.1172-0.185246 44.1644 0 49.3544 0.20043 54.5564 0.0425154 59.7555 0.0425154Z" fill="#FB535A" transform="matrix(1 0 0 1.0001 613.176 337.204)"/></g><path d="M0.922528 0 3.45435 0 3.45435-4.40763 7.42122-4.40763 7.42122-6.34494 3.45435-6.34494 3.45435-8.68201 8.05674-8.68201 8.05674-10.7526 0.922528-10.7526ZM13.2434 0.123004 13.2434-1.90656C12.8949-1.90656 12.6591-1.91681 12.5259-1.94756 12.3824-1.96806 12.2491-2.02956 12.1364-2.12181 11.8494-2.34732 11.7366-2.73683 11.7366-3.54661L11.7366-11.8186 9.27653-11.8186 9.27653-2.93159C9.27653-0.922528 10.2298 0.123004 12.0749 0.123004ZM17.7023 0.194756C18.5736 0.194756 19.3321-0.0410012 19.9573-0.553517 20.0086-0.317759 20.0701-0.133254 20.1419 0L22.4482 0C22.2534-0.461264 22.1407-1.10703 22.1407-1.93731L22.1407-8.30275 19.6806-8.30275 19.6806-7.77998C19.0656-8.22075 18.3275-8.4975 17.6408-8.4975 15.3652-8.4975 13.8584-6.71395 13.8584-4.13087 13.8584-1.48629 15.4165 0.194756 17.7023 0.194756ZM16.216-4.13087C16.216-5.57617 17.1488-6.71395 18.2353-6.71395 18.7478-6.71395 19.4243-6.59095 19.8651-5.87343L19.8651-2.42932C19.4243-1.70155 18.7273-1.5683 18.2353-1.5683 17.1488-1.5683 16.216-2.71633 16.216-4.13087ZM25.6155 0 29.3774 0 32.0117-8.30275 29.5311-8.30275 27.5323-1.5068 27.4606-1.5068 25.472-8.30275 22.9914-8.30275ZM36.6038 0.194756C39.1869 0.194756 40.95-1.44529 40.95-4.21288 40.95-6.98046 39.2894-8.4975 36.6038-8.4975 33.8978-8.4975 32.2372-6.98046 32.2372-4.21288 32.2372-1.44529 34.0208 0.194756 36.6038 0.194756ZM34.6665-4.21288C34.6665-5.85292 35.4148-6.71395 36.6038-6.71395 37.7826-6.71395 38.5207-5.85292 38.5207-4.21288 38.5207-2.62408 37.7519-1.57855 36.6038-1.57855 35.4456-1.57855 34.6665-2.62408 34.6665-4.21288ZM42.18-8.30275 42.18 0 44.6401 0 44.6401-5.62742C45.1116-6.18093 45.8394-6.42694 46.6184-6.42694 46.8849-6.42694 47.1412-6.39619 47.4384-6.31419L47.4384-8.21049C47.2027-8.28225 46.9772-8.313 46.7106-8.313 45.9726-8.313 45.1731-7.97474 44.6401-7.41097L44.6401-8.30275ZM55.6899-2.49082C54.8391-1.85531 53.8859-1.5478 52.8301-1.5478 51.3233-1.5478 50.4623-2.21407 50.2265-3.53636L56.2127-3.53636C56.2229-3.82336 56.2434-4.03862 56.2434-4.19238 56.2434-6.98046 54.6239-8.50775 52.0408-8.50775 49.4475-8.50775 47.8382-6.98046 47.8382-4.19238 47.8382-1.38379 49.5602 0.246007 52.8301 0.246007 53.7936 0.246007 54.9006 0.0307509 55.6899-0.440763ZM50.3085-5.25841C50.5545-6.24244 51.1798-6.7652 52.0408-6.7652 52.9633-6.7652 53.6604-6.28344 53.9166-5.25841ZM60.9381 0.194756C61.8503 0.194756 62.6191-0.0410012 63.2649-0.553517 63.3059-0.317759 63.3674-0.133254 63.4494 0L65.7557 0C65.5507-0.461264 65.4482-1.10703 65.4482-1.91681L65.4482-11.8186 62.9881-11.8186 62.9881-7.75948C62.3731-8.24125 61.6351-8.477 60.9381-8.477 58.6625-8.477 57.166-6.7037 57.166-4.12062 57.166-1.5478 58.6215 0.194756 60.9381 0.194756ZM59.5133-4.12062C59.5133-5.56592 60.4461-6.71395 61.5428-6.71395 62.0964-6.71395 62.8446-6.52944 63.2751-5.66842L63.2751-2.58308C62.8446-1.7323 62.0964-1.5478 61.5428-1.5478 60.4461-1.5478 59.5133-2.70608 59.5133-4.12062ZM80.2599-6.15018 76.908-6.15018 76.908-4.22313 78.1176-4.22313 78.1176-1.85531C77.7998-1.82455 77.4103-1.8143 76.9798-1.8143 75.6883-1.8143 74.5095-2.28582 73.8535-3.3621 73.5152-3.90537 73.3409-4.52038 73.3409-5.20716 73.3409-7.79023 74.8477-9.05102 77.0618-9.05102 77.9536-9.05102 78.9171-8.87677 79.9524-8.52825L79.9524-10.3733C79.1529-10.6911 77.8921-10.9576 76.7645-10.9576 74.448-10.9576 72.6029-9.89155 71.5881-8.17974 71.0859-7.29822 70.8194-6.31419 70.8194-5.20716 70.8194-1.97831 73.2077 0.194756 76.8465 0.194756 78.2713 0.194756 79.3169-0.0102503 80.2599-0.461264ZM81.7974-8.30275 81.7974 0 84.2473 0 84.2473-5.62742C84.729-6.18093 85.4466-6.42694 86.2358-6.42694 86.4921-6.42694 86.7586-6.39619 87.0456-6.31419L87.0456-8.21049C86.8201-8.28225 86.5843-8.313 86.3281-8.313 85.5901-8.313 84.7905-7.97474 84.2473-7.41097L84.2473-8.30275ZM91.2892 0.194756C92.1605 0.194756 92.919-0.0410012 93.5443-0.553517 93.5955-0.317759 93.6571-0.133254 93.7288 0L96.0351 0C95.8404-0.461264 95.7276-1.10703 95.7276-1.93731L95.7276-8.30275 93.2675-8.30275 93.2675-7.77998C92.6525-8.22075 91.9145-8.4975 91.2277-8.4975 88.9522-8.4975 87.4454-6.71395 87.4454-4.13087 87.4454-1.48629 89.0034 0.194756 91.2892 0.194756ZM89.8029-4.13087C89.8029-5.57617 90.7357-6.71395 91.8222-6.71395 92.3348-6.71395 93.0113-6.59095 93.452-5.87343L93.452-2.42932C93.0113-1.70155 92.3143-1.5683 91.8222-1.5683 90.7357-1.5683 89.8029-2.71633 89.8029-4.13087ZM97.4702-8.30275 97.4702 0 99.9302 0 99.9302-8.30275ZM97.4702-9.35853 99.9302-9.35853 99.9302-11.8186 97.4702-11.8186ZM101.663-8.32325 101.663-0.0307509 104.123-0.0307509 104.123-5.75042C104.563-6.16043 105.322-6.48844 105.752-6.48844 106.429-6.48844 106.993-6.06818 106.993-5.47366L106.993-0.0307509 109.453-0.0307509 109.453-5.88368C109.453-7.35972 108.448-8.3745 106.87-8.3745 105.906-8.3745 104.871-7.99524 104.123-7.32897L104.123-8.32325Z" fill="#FB535A" transform="matrix(1 0 0 1.0001 680.934 355.566)"/><path d="M21.129-16.5785C21.129-22.1219 17.2197-25.0487 10.9006-25.0487 5.22278-25.0487 1.40653-22.2253 1.40653-18.4194 1.40653-9.4217 16.3716-12.6691 16.3716-6.8465 16.3716-4.82978 14.2928-3.52667 11.3247-3.52667 7.9014-3.52667 5.89502-5.29518 5.89502-8.14961L1.0549-8.14961C1.0549-2.29596 5.18142 0.351633 11.4281 0.351633 17.1473 0.351633 21.129-2.5028 21.129-6.8465 21.129-15.8028 6.02947-13.0932 6.02947-18.347 6.02947-20.4671 8.60467-21.2014 10.942-21.2014 14.1481-21.2014 16.3716-19.4019 16.3716-16.5785ZM52.0727-24.6971 21.6978-24.6971 21.6978-20.0741 52.0727-20.0741C56.737-20.0741 60.2637-17.8505 60.2637-12.3485 60.2637-6.8465 56.737-4.12652 52.0727-4.12652 46.5397-4.12652 44.0679-7.76695 44.0679-12.876L44.0679-14.2928C44.0679-14.2928 39.2691-14.2928 39.2691-14.2928L39.2691-12.9794C39.2691-5.0056 43.8507 0.351633 52.0727 0.351633 59.3743 0.351633 65.0211-3.84728 65.0211-12.3485 65.0211-20.4671 59.3743-24.6971 52.0727-24.6971ZM29.1442-16.9301 29.1442 0 33.9016 0 33.9016-16.9301ZM68.7236 0 73.4913 0 73.4913-8.71843 79.0347-8.71843 83.6576 0 89.0149 0 83.2646-9.52512C86.2639-11.004 87.6083-14.2515 87.6083-16.8991 87.6083-21.8736 84.4954-24.6971 78.9209-24.6971L68.7236-24.6971 68.7236-20.5292 78.3935-20.5292C81.5685-20.5292 83.1199-19.2261 83.1199-16.7956 83.1199-14.1791 81.2893-12.6691 78.4349-12.6691L68.7236-12.6691ZM109.585-20.0741 109.585-24.6971 91.3108-24.6971 91.3108-20.0741ZM109.585-10.156 109.585-14.5411 91.3108-14.5411 91.3108-10.156ZM91.3108 0 109.585 0 109.585-4.65397 91.3108-4.65397Z" fill="#006ADC" transform="matrix(1 0 0 1.0001 680.801 383.938)"/></g></svg>