<svg width="178" height="54" xmlns="http://www.w3.org/2000/svg" xmlns:xlink="http://www.w3.org/1999/xlink" xml:space="preserve" overflow="hidden"><defs><clipPath id="clip0"><rect x="552" y="333" width="178" height="54"/></clipPath><clipPath id="clip1"><rect x="552" y="333" width="62" height="54"/></clipPath></defs><g clip-path="url(#clip0)" transform="translate(-552 -333)"><g clip-path="url(#clip1)"><path d="M28.6328 15.0691C27.6773 17.9177 26.7789 20.586 25.8864 23.2542 25.3846 24.7566 25.4928 24.9219 27.0613 24.9249 32.1635 24.9349 37.2657 24.9399 42.3678 24.9399L43.7501 24.9399C43.8672 25.1893 43.9574 25.2855 43.9394 25.3486 42.7164 29.1587 42.1936 33.3143 38.5577 35.9135 36.7589 37.2599 34.5727 37.9883 32.3258 37.9898 29.0024 37.9898 25.6761 38.0079 22.3528 37.9658 21.3462 37.9658 20.7873 38.2392 20.4748 39.2849 19.8017 41.5475 18.9724 43.7621 18.2062 46.0037 16.8434 50.2645 12.8534 53.132 8.38042 53.065L1.55048 53.065C1.10577 53.065 0.664063 53.0109 0.00300481 52.9658 0.576924 51.0908 1.07272 49.36 1.64063 47.6473 4.48017 39.1136 7.34977 30.586 10.1893 22.0493 11.5475 17.9658 15.1322 15.1172 19.4231 14.9339 22.1064 14.8197 24.7957 14.8888 27.485 14.8918 27.8714 14.9228 28.2551 14.982 28.6328 15.0691Z" fill="#006ADC" transform="matrix(1.00517 0 0 1 552.574 333.371)"/><path d="M60.8564 0.0510818C59.1707 4.02344 59.0055 8.34436 55.577 11.1899 53.8072 12.6593 51.821 13.6719 49.5163 13.7019 43.4646 13.7801 37.4129 13.747 31.3612 13.75 31.1602 13.6995 30.9663 13.6238 30.7843 13.5247 31.3853 11.6857 32.0403 9.8648 32.5481 8.00482 33.9544 2.81551 38.705-0.183293 43.699 0 48.8342 0.198318 53.9814 0.0420674 59.1257 0.0420674Z" fill="#FB535A" transform="matrix(1.00517 0 0 1 552.574 333.371)"/></g><path d="M0.912805 0 3.41795 0 3.41795-4.36118 7.34301-4.36118 7.34301-6.27807 3.41795-6.27807 3.41795-8.59051 7.97183-8.59051 7.97183-10.6392 0.912805-10.6392ZM13.1038 0.121707 13.1038-1.88646C12.759-1.88646 12.5257-1.89661 12.3939-1.92703 12.2519-1.94732 12.12-2.00817 12.0085-2.09945 11.7245-2.32258 11.6129-2.70799 11.6129-3.50923L11.6129-11.694 9.17876-11.694 9.17876-2.90069C9.17876-0.912805 10.122 0.121707 11.9476 0.121707ZM17.5157 0.192703C18.3778 0.192703 19.1283-0.0405691 19.747-0.547683 19.7977-0.314411 19.8586-0.13185 19.9296 0L22.2116 0C22.0189-0.456402 21.9073-1.09537 21.9073-1.91689L21.9073-8.21524 19.4732-8.21524 19.4732-7.69799C18.8646-8.1341 18.1344-8.40794 17.4549-8.40794 15.2033-8.40794 13.7124-6.64319 13.7124-4.08734 13.7124-1.47063 15.254 0.192703 17.5157 0.192703ZM16.0451-4.08734C16.0451-5.5174 16.968-6.64319 18.0431-6.64319 18.5502-6.64319 19.2196-6.52148 19.6557-5.81152L19.6557-2.40372C19.2196-1.68362 18.5299-1.55177 18.0431-1.55177 16.968-1.55177 16.0451-2.6877 16.0451-4.08734ZM25.3455 0 29.0678 0 31.6743-8.21524 29.2199-8.21524 27.2421-1.49091 27.1712-1.49091 25.2036-8.21524 22.7491-8.21524ZM36.2181 0.192703C38.7739 0.192703 40.5184-1.43006 40.5184-4.16847 40.5184-6.90689 38.8753-8.40794 36.2181-8.40794 33.5405-8.40794 31.8975-6.90689 31.8975-4.16847 31.8975-1.43006 33.6622 0.192703 36.2181 0.192703ZM34.3012-4.16847C34.3012-5.79124 35.0416-6.64319 36.2181-6.64319 37.3844-6.64319 38.1147-5.79124 38.1147-4.16847 38.1147-2.59642 37.354-1.56191 36.2181-1.56191 35.072-1.56191 34.3012-2.59642 34.3012-4.16847ZM41.7355-8.21524 41.7355 0 44.1696 0 44.1696-5.56811C44.6361-6.11579 45.3563-6.35921 46.1271-6.35921 46.3908-6.35921 46.6443-6.32878 46.9384-6.24764L46.9384-8.12396C46.7052-8.19496 46.482-8.22538 46.2183-8.22538 45.4881-8.22538 44.697-7.89069 44.1696-7.33286L44.1696-8.21524ZM55.103-2.46457C54.2612-1.83575 53.3179-1.53148 52.2733-1.53148 50.7824-1.53148 49.9304-2.19073 49.6971-3.49908L55.6202-3.49908C55.6304-3.78307 55.6507-3.99606 55.6507-4.14819 55.6507-6.90689 54.0482-8.41809 51.4923-8.41809 48.9263-8.41809 47.334-6.90689 47.334-4.14819 47.334-1.36921 49.0379 0.243415 52.2733 0.243415 53.2267 0.243415 54.322 0.0304268 55.103-0.436118ZM49.7783-5.20299C50.0217-6.17664 50.6404-6.6939 51.4923-6.6939 52.4051-6.6939 53.0948-6.21721 53.3484-5.20299ZM60.2958 0.192703C61.1985 0.192703 61.9592-0.0405691 62.5981-0.547683 62.6387-0.314411 62.6995-0.13185 62.7807 0L65.0627 0C64.8598-0.456402 64.7584-1.09537 64.7584-1.89661L64.7584-11.694 62.3243-11.694 62.3243-7.6777C61.7157-8.15439 60.9855-8.38766 60.2958-8.38766 58.0442-8.38766 56.5635-6.63305 56.5635-4.07719 56.5635-1.53148 58.0037 0.192703 60.2958 0.192703ZM58.886-4.07719C58.886-5.50725 59.809-6.64319 60.8942-6.64319 61.4419-6.64319 62.1823-6.46063 62.6083-5.60868L62.6083-2.55585C62.1823-1.71404 61.4419-1.53148 60.8942-1.53148 59.809-1.53148 58.886-2.67756 58.886-4.07719ZM79.414-6.08536 76.0975-6.08536 76.0975-4.17862 77.2943-4.17862 77.2943-1.83575C76.9799-1.80532 76.5945-1.79518 76.1685-1.79518 74.8905-1.79518 73.7242-2.26173 73.0751-3.32667 72.7404-3.86421 72.568-4.47274 72.568-5.15228 72.568-7.70813 74.0589-8.95563 76.2496-8.95563 77.132-8.95563 78.0854-8.78321 79.1097-8.43837L79.1097-10.264C78.3186-10.5784 77.0711-10.8421 75.9555-10.8421 73.6633-10.8421 71.8377-9.78729 70.8336-8.09353 70.3367-7.2213 70.073-6.24764 70.073-5.15228 70.073-1.95746 72.4361 0.192703 76.0366 0.192703 77.4464 0.192703 78.4809-0.0101423 79.414-0.456402ZM80.9353-8.21524 80.9353 0 83.3594 0 83.3594-5.56811C83.836-6.11579 84.546-6.35921 85.327-6.35921 85.5805-6.35921 85.8442-6.32878 86.1282-6.24764L86.1282-8.12396C85.9051-8.19496 85.6718-8.22538 85.4182-8.22538 84.688-8.22538 83.8969-7.89069 83.3594-7.33286L83.3594-8.21524ZM90.3271 0.192703C91.1892 0.192703 91.9397-0.0405691 92.5584-0.547683 92.6091-0.314411 92.67-0.13185 92.741 0L95.023 0C94.8303-0.456402 94.7187-1.09537 94.7187-1.91689L94.7187-8.21524 92.2845-8.21524 92.2845-7.69799C91.676-8.1341 90.9458-8.40794 90.2662-8.40794 88.0146-8.40794 86.5237-6.64319 86.5237-4.08734 86.5237-1.47063 88.0654 0.192703 90.3271 0.192703ZM88.8565-4.08734C88.8565-5.5174 89.7794-6.64319 90.8545-6.64319 91.3616-6.64319 92.031-6.52148 92.4671-5.81152L92.4671-2.40372C92.031-1.68362 91.3413-1.55177 90.8545-1.55177 89.7794-1.55177 88.8565-2.6877 88.8565-4.08734ZM96.4429-8.21524 96.4429 0 98.877 0 98.877-8.21524ZM96.4429-9.2599 98.877-9.2599 98.877-11.694 96.4429-11.694ZM100.591-8.23553 100.591-0.0304268 103.025-0.0304268 103.025-5.68982C103.461-6.09551 104.212-6.42006 104.638-6.42006 105.307-6.42006 105.865-6.00423 105.865-5.41597L105.865-0.0304268 108.299-0.0304268 108.299-5.82166C108.299-7.28215 107.305-8.28624 105.743-8.28624 104.79-8.28624 103.766-7.91097 103.025-7.25173L103.025-8.23553Z" fill="#FB535A" transform="matrix(1.00517 0 0 1 619.964 351.538)"/><path d="M20.9063-16.4037C20.9063-21.8887 17.0382-24.7847 10.7857-24.7847 5.16774-24.7847 1.39171-21.991 1.39171-18.2252 1.39171-9.3224 16.1991-12.5356 16.1991-6.77434 16.1991-4.77888 14.1422-3.4895 11.2053-3.4895 7.81813-3.4895 5.83289-5.23937 5.83289-8.06372L1.04378-8.06372C1.04378-2.27176 5.12681 0.347927 11.3076 0.347927 16.9666 0.347927 20.9063-2.47642 20.9063-6.77434 20.9063-15.6363 5.96593-12.9552 5.96593-18.1536 5.96593-20.2514 8.51398-20.978 10.8267-20.978 13.9989-20.978 16.1991-19.1974 16.1991-16.4037ZM51.5239-24.4368 21.4691-24.4368 21.4691-19.8625 51.5239-19.8625C56.1391-19.8625 59.6286-17.6624 59.6286-12.2184 59.6286-6.77434 56.1391-4.08303 51.5239-4.08303 46.0492-4.08303 43.6034-7.68509 43.6034-12.7403L43.6034-14.1422C43.6034-14.1422 38.8553-14.1422 38.8553-14.1422L38.8553-12.8426C38.8553-4.95284 43.3885 0.347927 51.5239 0.347927 58.7485 0.347927 64.3358-3.80673 64.3358-12.2184 64.3358-20.2514 58.7485-24.4368 51.5239-24.4368ZM28.837-16.7517 28.837 0 33.5443 0 33.5443-16.7517ZM67.9993 0 72.7168 0 72.7168-8.62654 78.2017-8.62654 82.7759 0 88.0767 0 82.3871-9.42473C85.3547-10.8881 86.685-14.1013 86.685-16.721 86.685-21.6431 83.6048-24.4368 78.0891-24.4368L67.9993-24.4368 67.9993-20.3128 77.5673-20.3128C80.7088-20.3128 82.2438-19.0234 82.2438-16.6186 82.2438-14.0296 80.4325-12.5356 77.6082-12.5356L67.9993-12.5356ZM108.43-19.8625 108.43-24.4368 90.3485-24.4368 90.3485-19.8625ZM108.43-10.049 108.43-14.3878 90.3485-14.3878 90.3485-10.049ZM90.3485 0 108.43 0 108.43-4.60492 90.3485-4.60492Z" fill="#006ADC" transform="matrix(1.00517 0 0 1 619.832 379.608)"/></g></svg>